<mxfile host="Electron" modified="2023-08-30T11:50:56.947Z" agent="Mozilla/5.0 (Windows NT 10.0; Win64; x64) AppleWebKit/537.36 (KHTML, like Gecko) draw.io/21.6.5 Chrome/114.0.5735.243 Electron/25.3.1 Safari/537.36" etag="6SQTD3NxzPTDJREQcet7" version="21.6.5" type="device">
  <diagram name="Page-1" id="yszvqsrRTBUuw6-uYf_8">
    <mxGraphModel dx="757" dy="814" grid="1" gridSize="10" guides="1" tooltips="1" connect="1" arrows="1" fold="1" page="1" pageScale="1" pageWidth="850" pageHeight="1100" math="0" shadow="0">
      <root>
        <mxCell id="0" />
        <mxCell id="1" parent="0" />
        <mxCell id="xKUUCvhhB4_ezrGLOwSP-2" value="Landlord" style="swimlane;fontStyle=0;childLayout=stackLayout;horizontal=1;startSize=26;fillColor=none;horizontalStack=0;resizeParent=1;resizeParentMax=0;resizeLast=0;collapsible=1;marginBottom=0;whiteSpace=wrap;html=1;" parent="1" vertex="1">
          <mxGeometry x="140" y="290" width="140" height="52" as="geometry" />
        </mxCell>
        <mxCell id="xKUUCvhhB4_ezrGLOwSP-15" style="edgeStyle=orthogonalEdgeStyle;rounded=0;orthogonalLoop=1;jettySize=auto;html=1;entryX=0.5;entryY=1;entryDx=0;entryDy=0;endArrow=none;endFill=0;startArrow=block;startFill=0;" parent="1" source="xKUUCvhhB4_ezrGLOwSP-6" target="xKUUCvhhB4_ezrGLOwSP-2" edge="1">
          <mxGeometry relative="1" as="geometry" />
        </mxCell>
        <mxCell id="xKUUCvhhB4_ezrGLOwSP-6" value="Location" style="swimlane;fontStyle=0;childLayout=stackLayout;horizontal=1;startSize=26;fillColor=none;horizontalStack=0;resizeParent=1;resizeParentMax=0;resizeLast=0;collapsible=1;marginBottom=0;whiteSpace=wrap;html=1;" parent="1" vertex="1">
          <mxGeometry x="140" y="520" width="140" height="52" as="geometry" />
        </mxCell>
        <mxCell id="xKUUCvhhB4_ezrGLOwSP-18" style="edgeStyle=orthogonalEdgeStyle;rounded=0;orthogonalLoop=1;jettySize=auto;html=1;entryX=1;entryY=0.5;entryDx=0;entryDy=0;endArrow=block;endFill=0;startArrow=none;startFill=0;" parent="1" source="xKUUCvhhB4_ezrGLOwSP-7" target="xKUUCvhhB4_ezrGLOwSP-6" edge="1">
          <mxGeometry relative="1" as="geometry" />
        </mxCell>
        <mxCell id="xKUUCvhhB4_ezrGLOwSP-22" style="edgeStyle=orthogonalEdgeStyle;rounded=0;orthogonalLoop=1;jettySize=auto;html=1;entryX=0.5;entryY=1;entryDx=0;entryDy=0;endArrow=none;endFill=0;startArrow=block;startFill=0;" parent="1" source="xKUUCvhhB4_ezrGLOwSP-7" target="xKUUCvhhB4_ezrGLOwSP-10" edge="1">
          <mxGeometry relative="1" as="geometry" />
        </mxCell>
        <mxCell id="xKUUCvhhB4_ezrGLOwSP-7" value="Room" style="swimlane;fontStyle=0;childLayout=stackLayout;horizontal=1;startSize=26;fillColor=none;horizontalStack=0;resizeParent=1;resizeParentMax=0;resizeLast=0;collapsible=1;marginBottom=0;whiteSpace=wrap;html=1;" parent="1" vertex="1">
          <mxGeometry x="410" y="520" width="140" height="52" as="geometry" />
        </mxCell>
        <mxCell id="xKUUCvhhB4_ezrGLOwSP-24" style="edgeStyle=orthogonalEdgeStyle;rounded=0;orthogonalLoop=1;jettySize=auto;html=1;entryX=1;entryY=0.5;entryDx=0;entryDy=0;endArrow=block;endFill=0;startArrow=none;startFill=0;exitX=0.5;exitY=1;exitDx=0;exitDy=0;" parent="1" source="xKUUCvhhB4_ezrGLOwSP-8" target="xKUUCvhhB4_ezrGLOwSP-7" edge="1">
          <mxGeometry relative="1" as="geometry" />
        </mxCell>
        <mxCell id="xKUUCvhhB4_ezrGLOwSP-8" value="RoomAccessory" style="swimlane;fontStyle=0;childLayout=stackLayout;horizontal=1;startSize=26;fillColor=none;horizontalStack=0;resizeParent=1;resizeParentMax=0;resizeLast=0;collapsible=1;marginBottom=0;whiteSpace=wrap;html=1;" parent="1" vertex="1">
          <mxGeometry x="660" y="430" width="140" height="52" as="geometry" />
        </mxCell>
        <mxCell id="xKUUCvhhB4_ezrGLOwSP-10" value="Contract" style="swimlane;fontStyle=0;childLayout=stackLayout;horizontal=1;startSize=26;fillColor=none;horizontalStack=0;resizeParent=1;resizeParentMax=0;resizeLast=0;collapsible=1;marginBottom=0;whiteSpace=wrap;html=1;" parent="1" vertex="1">
          <mxGeometry x="410" y="290" width="140" height="52" as="geometry" />
        </mxCell>
        <mxCell id="xKUUCvhhB4_ezrGLOwSP-12" style="edgeStyle=orthogonalEdgeStyle;rounded=0;orthogonalLoop=1;jettySize=auto;html=1;entryX=0.5;entryY=0;entryDx=0;entryDy=0;endArrow=block;endFill=0;strokeWidth=1;startArrow=none;startFill=0;" parent="1" source="xKUUCvhhB4_ezrGLOwSP-11" target="xKUUCvhhB4_ezrGLOwSP-10" edge="1">
          <mxGeometry relative="1" as="geometry" />
        </mxCell>
        <mxCell id="xKUUCvhhB4_ezrGLOwSP-11" value="Tenant" style="swimlane;fontStyle=0;childLayout=stackLayout;horizontal=1;startSize=20;fillColor=none;horizontalStack=0;resizeParent=1;resizeParentMax=0;resizeLast=0;collapsible=1;marginBottom=0;whiteSpace=wrap;html=1;" parent="1" vertex="1">
          <mxGeometry x="410" y="120" width="140" height="52" as="geometry" />
        </mxCell>
        <mxCell id="xKUUCvhhB4_ezrGLOwSP-13" value="&lt;font style=&quot;font-size: 15px;&quot;&gt;1&lt;/font&gt;" style="text;html=1;align=center;verticalAlign=middle;resizable=0;points=[];autosize=1;strokeColor=none;fillColor=none;" parent="1" vertex="1">
          <mxGeometry x="475" y="172" width="30" height="30" as="geometry" />
        </mxCell>
        <mxCell id="xKUUCvhhB4_ezrGLOwSP-14" value="&lt;font style=&quot;font-size: 15px;&quot;&gt;0..*&lt;/font&gt;" style="text;html=1;align=center;verticalAlign=middle;resizable=0;points=[];autosize=1;strokeColor=none;fillColor=none;" parent="1" vertex="1">
          <mxGeometry x="475" y="260" width="50" height="30" as="geometry" />
        </mxCell>
        <mxCell id="xKUUCvhhB4_ezrGLOwSP-16" value="&lt;font style=&quot;font-size: 15px;&quot;&gt;0..*&lt;/font&gt;" style="text;html=1;align=center;verticalAlign=middle;resizable=0;points=[];autosize=1;strokeColor=none;fillColor=none;" parent="1" vertex="1">
          <mxGeometry x="205" y="490" width="50" height="30" as="geometry" />
        </mxCell>
        <mxCell id="xKUUCvhhB4_ezrGLOwSP-17" value="&lt;font style=&quot;font-size: 15px;&quot;&gt;1&lt;/font&gt;" style="text;html=1;align=center;verticalAlign=middle;resizable=0;points=[];autosize=1;strokeColor=none;fillColor=none;" parent="1" vertex="1">
          <mxGeometry x="206" y="341" width="30" height="30" as="geometry" />
        </mxCell>
        <mxCell id="xKUUCvhhB4_ezrGLOwSP-19" value="&lt;font style=&quot;font-size: 15px;&quot;&gt;1&lt;/font&gt;" style="text;html=1;align=center;verticalAlign=middle;resizable=0;points=[];autosize=1;strokeColor=none;fillColor=none;" parent="1" vertex="1">
          <mxGeometry x="280" y="518" width="30" height="30" as="geometry" />
        </mxCell>
        <mxCell id="xKUUCvhhB4_ezrGLOwSP-20" value="&lt;font style=&quot;font-size: 15px;&quot;&gt;1..*&lt;/font&gt;" style="text;html=1;align=center;verticalAlign=middle;resizable=0;points=[];autosize=1;strokeColor=none;fillColor=none;" parent="1" vertex="1">
          <mxGeometry x="365" y="518" width="50" height="30" as="geometry" />
        </mxCell>
        <mxCell id="xKUUCvhhB4_ezrGLOwSP-23" value="&lt;font style=&quot;font-size: 15px;&quot;&gt;1&lt;/font&gt;" style="text;html=1;align=center;verticalAlign=middle;resizable=0;points=[];autosize=1;strokeColor=none;fillColor=none;" parent="1" vertex="1">
          <mxGeometry x="475" y="488" width="30" height="30" as="geometry" />
        </mxCell>
        <mxCell id="xKUUCvhhB4_ezrGLOwSP-25" value="&lt;font style=&quot;font-size: 15px;&quot;&gt;0..*&lt;/font&gt;" style="text;html=1;align=center;verticalAlign=middle;resizable=0;points=[];autosize=1;strokeColor=none;fillColor=none;" parent="1" vertex="1">
          <mxGeometry x="545" y="520" width="50" height="30" as="geometry" />
        </mxCell>
        <mxCell id="xKUUCvhhB4_ezrGLOwSP-27" value="&lt;font style=&quot;font-size: 15px;&quot;&gt;0..*&lt;/font&gt;" style="text;html=1;align=center;verticalAlign=middle;resizable=0;points=[];autosize=1;strokeColor=none;fillColor=none;" parent="1" vertex="1">
          <mxGeometry x="685" y="482" width="50" height="30" as="geometry" />
        </mxCell>
        <mxCell id="xKUUCvhhB4_ezrGLOwSP-28" value="&lt;font style=&quot;font-size: 15px;&quot;&gt;0..*&lt;/font&gt;" style="text;html=1;align=center;verticalAlign=middle;resizable=0;points=[];autosize=1;strokeColor=none;fillColor=none;" parent="1" vertex="1">
          <mxGeometry x="474" y="342" width="50" height="30" as="geometry" />
        </mxCell>
        <mxCell id="dCoSTgRZacFcHtJHFmXb-2" style="edgeStyle=orthogonalEdgeStyle;rounded=0;orthogonalLoop=1;jettySize=auto;html=1;exitX=1;exitY=0.5;exitDx=0;exitDy=0;entryX=0;entryY=0.5;entryDx=0;entryDy=0;endArrow=block;endFill=0;" parent="1" source="dCoSTgRZacFcHtJHFmXb-1" target="xKUUCvhhB4_ezrGLOwSP-11" edge="1">
          <mxGeometry relative="1" as="geometry" />
        </mxCell>
        <mxCell id="dCoSTgRZacFcHtJHFmXb-3" style="edgeStyle=orthogonalEdgeStyle;rounded=0;orthogonalLoop=1;jettySize=auto;html=1;entryX=0.5;entryY=0;entryDx=0;entryDy=0;endArrow=block;endFill=0;exitX=1;exitY=0.5;exitDx=0;exitDy=0;" parent="1" source="dCoSTgRZacFcHtJHFmXb-1" target="xKUUCvhhB4_ezrGLOwSP-2" edge="1">
          <mxGeometry relative="1" as="geometry" />
        </mxCell>
        <mxCell id="dCoSTgRZacFcHtJHFmXb-1" value="User" style="swimlane;fontStyle=0;childLayout=stackLayout;horizontal=1;startSize=20;fillColor=none;horizontalStack=0;resizeParent=1;resizeParentMax=0;resizeLast=0;collapsible=1;marginBottom=0;whiteSpace=wrap;html=1;" parent="1" vertex="1">
          <mxGeometry x="20" y="120" width="140" height="52" as="geometry" />
        </mxCell>
        <mxCell id="dCoSTgRZacFcHtJHFmXb-4" value="&lt;font style=&quot;font-size: 15px;&quot;&gt;1&lt;/font&gt;" style="text;html=1;align=center;verticalAlign=middle;resizable=0;points=[];autosize=1;strokeColor=none;fillColor=none;" parent="1" vertex="1">
          <mxGeometry x="160" y="120" width="30" height="30" as="geometry" />
        </mxCell>
        <mxCell id="dCoSTgRZacFcHtJHFmXb-5" value="&lt;font style=&quot;font-size: 15px;&quot;&gt;0..*&lt;/font&gt;" style="text;html=1;align=center;verticalAlign=middle;resizable=0;points=[];autosize=1;strokeColor=none;fillColor=none;" parent="1" vertex="1">
          <mxGeometry x="205" y="258" width="50" height="30" as="geometry" />
        </mxCell>
        <mxCell id="dCoSTgRZacFcHtJHFmXb-6" value="&lt;font style=&quot;font-size: 15px;&quot;&gt;0..*&lt;/font&gt;" style="text;html=1;align=center;verticalAlign=middle;resizable=0;points=[];autosize=1;strokeColor=none;fillColor=none;" parent="1" vertex="1">
          <mxGeometry x="364" y="117" width="50" height="30" as="geometry" />
        </mxCell>
        <mxCell id="dCoSTgRZacFcHtJHFmXb-8" style="edgeStyle=orthogonalEdgeStyle;rounded=0;orthogonalLoop=1;jettySize=auto;html=1;entryX=0.25;entryY=1;entryDx=0;entryDy=0;endArrow=block;endFill=0;" parent="1" source="dCoSTgRZacFcHtJHFmXb-7" target="xKUUCvhhB4_ezrGLOwSP-7" edge="1">
          <mxGeometry relative="1" as="geometry">
            <Array as="points">
              <mxPoint x="230" y="660" />
              <mxPoint x="445" y="660" />
            </Array>
          </mxGeometry>
        </mxCell>
        <mxCell id="dCoSTgRZacFcHtJHFmXb-9" style="edgeStyle=orthogonalEdgeStyle;rounded=0;orthogonalLoop=1;jettySize=auto;html=1;endArrow=block;endFill=0;startArrow=none;startFill=0;entryX=0.25;entryY=1;entryDx=0;entryDy=0;" parent="1" source="dCoSTgRZacFcHtJHFmXb-7" target="xKUUCvhhB4_ezrGLOwSP-6" edge="1">
          <mxGeometry relative="1" as="geometry">
            <mxPoint x="170" y="600" as="targetPoint" />
            <Array as="points">
              <mxPoint x="230" y="660" />
              <mxPoint x="175" y="660" />
            </Array>
          </mxGeometry>
        </mxCell>
        <mxCell id="dCoSTgRZacFcHtJHFmXb-7" value="Rating" style="swimlane;fontStyle=0;childLayout=stackLayout;horizontal=1;startSize=26;fillColor=none;horizontalStack=0;resizeParent=1;resizeParentMax=0;resizeLast=0;collapsible=1;marginBottom=0;whiteSpace=wrap;html=1;" parent="1" vertex="1">
          <mxGeometry x="160" y="740" width="140" height="52" as="geometry" />
        </mxCell>
        <mxCell id="dCoSTgRZacFcHtJHFmXb-10" value="&lt;font style=&quot;font-size: 15px;&quot;&gt;1&lt;/font&gt;" style="text;html=1;align=center;verticalAlign=middle;resizable=0;points=[];autosize=1;strokeColor=none;fillColor=none;" parent="1" vertex="1">
          <mxGeometry x="414" y="572" width="30" height="30" as="geometry" />
        </mxCell>
        <mxCell id="dCoSTgRZacFcHtJHFmXb-11" value="&lt;font style=&quot;font-size: 15px;&quot;&gt;0..*&lt;/font&gt;" style="text;html=1;align=center;verticalAlign=middle;resizable=0;points=[];autosize=1;strokeColor=none;fillColor=none;" parent="1" vertex="1">
          <mxGeometry x="224" y="710" width="50" height="30" as="geometry" />
        </mxCell>
        <mxCell id="TfanlORFpR40lP0wg8pR-2" style="edgeStyle=orthogonalEdgeStyle;rounded=0;orthogonalLoop=1;jettySize=auto;html=1;entryX=1;entryY=0.5;entryDx=0;entryDy=0;endArrow=block;endFill=0;" edge="1" parent="1" source="TfanlORFpR40lP0wg8pR-1" target="xKUUCvhhB4_ezrGLOwSP-10">
          <mxGeometry relative="1" as="geometry" />
        </mxCell>
        <mxCell id="TfanlORFpR40lP0wg8pR-1" value="ContractState" style="swimlane;fontStyle=0;childLayout=stackLayout;horizontal=1;startSize=26;fillColor=none;horizontalStack=0;resizeParent=1;resizeParentMax=0;resizeLast=0;collapsible=1;marginBottom=0;whiteSpace=wrap;html=1;" vertex="1" parent="1">
          <mxGeometry x="660" y="290" width="140" height="52" as="geometry" />
        </mxCell>
        <mxCell id="TfanlORFpR40lP0wg8pR-3" value="&lt;font style=&quot;font-size: 15px;&quot;&gt;1..*&lt;/font&gt;" style="text;html=1;align=center;verticalAlign=middle;resizable=0;points=[];autosize=1;strokeColor=none;fillColor=none;" vertex="1" parent="1">
          <mxGeometry x="617" y="287" width="50" height="30" as="geometry" />
        </mxCell>
        <mxCell id="TfanlORFpR40lP0wg8pR-4" value="&lt;font style=&quot;font-size: 15px;&quot;&gt;1&lt;/font&gt;" style="text;html=1;align=center;verticalAlign=middle;resizable=0;points=[];autosize=1;strokeColor=none;fillColor=none;" vertex="1" parent="1">
          <mxGeometry x="551" y="287" width="30" height="30" as="geometry" />
        </mxCell>
        <mxCell id="TfanlORFpR40lP0wg8pR-6" style="edgeStyle=orthogonalEdgeStyle;rounded=0;orthogonalLoop=1;jettySize=auto;html=1;endArrow=block;endFill=0;entryX=0.75;entryY=1;entryDx=0;entryDy=0;exitX=0.75;exitY=0;exitDx=0;exitDy=0;" edge="1" parent="1">
          <mxGeometry relative="1" as="geometry">
            <mxPoint x="516" y="572" as="targetPoint" />
            <mxPoint x="547" y="792" as="sourcePoint" />
            <Array as="points">
              <mxPoint x="551" y="792" />
              <mxPoint x="551" y="630" />
              <mxPoint x="516" y="630" />
            </Array>
          </mxGeometry>
        </mxCell>
        <mxCell id="TfanlORFpR40lP0wg8pR-7" style="edgeStyle=orthogonalEdgeStyle;rounded=0;orthogonalLoop=1;jettySize=auto;html=1;entryX=0.75;entryY=1;entryDx=0;entryDy=0;endArrow=block;endFill=0;exitX=0.21;exitY=0;exitDx=0;exitDy=0;exitPerimeter=0;" edge="1" parent="1" source="TfanlORFpR40lP0wg8pR-5" target="xKUUCvhhB4_ezrGLOwSP-6">
          <mxGeometry relative="1" as="geometry">
            <mxPoint x="510" y="720" as="sourcePoint" />
            <Array as="points">
              <mxPoint x="470" y="630" />
              <mxPoint x="245" y="630" />
            </Array>
          </mxGeometry>
        </mxCell>
        <mxCell id="TfanlORFpR40lP0wg8pR-5" value="Picture" style="swimlane;fontStyle=0;childLayout=stackLayout;horizontal=1;startSize=26;fillColor=none;horizontalStack=0;resizeParent=1;resizeParentMax=0;resizeLast=0;collapsible=1;marginBottom=0;whiteSpace=wrap;html=1;" vertex="1" parent="1">
          <mxGeometry x="441" y="792" width="140" height="52" as="geometry" />
        </mxCell>
        <mxCell id="TfanlORFpR40lP0wg8pR-8" value="&lt;font style=&quot;font-size: 15px;&quot;&gt;0..*&lt;/font&gt;" style="text;html=1;align=center;verticalAlign=middle;resizable=0;points=[];autosize=1;strokeColor=none;fillColor=none;" vertex="1" parent="1">
          <mxGeometry x="545" y="762" width="50" height="30" as="geometry" />
        </mxCell>
        <mxCell id="TfanlORFpR40lP0wg8pR-9" value="&lt;font style=&quot;font-size: 15px;&quot;&gt;0..*&lt;/font&gt;" style="text;html=1;align=center;verticalAlign=middle;resizable=0;points=[];autosize=1;strokeColor=none;fillColor=none;" vertex="1" parent="1">
          <mxGeometry x="428" y="762" width="50" height="30" as="geometry" />
        </mxCell>
        <mxCell id="TfanlORFpR40lP0wg8pR-10" value="&lt;font style=&quot;font-size: 15px;&quot;&gt;1&lt;/font&gt;" style="text;html=1;align=center;verticalAlign=middle;resizable=0;points=[];autosize=1;strokeColor=none;fillColor=none;" vertex="1" parent="1">
          <mxGeometry x="215" y="573" width="30" height="30" as="geometry" />
        </mxCell>
        <mxCell id="TfanlORFpR40lP0wg8pR-11" value="&lt;font style=&quot;font-size: 15px;&quot;&gt;1&lt;/font&gt;" style="text;html=1;align=center;verticalAlign=middle;resizable=0;points=[];autosize=1;strokeColor=none;fillColor=none;" vertex="1" parent="1">
          <mxGeometry x="141" y="575" width="30" height="30" as="geometry" />
        </mxCell>
        <mxCell id="TfanlORFpR40lP0wg8pR-12" value="&lt;font style=&quot;font-size: 15px;&quot;&gt;1&lt;/font&gt;" style="text;html=1;align=center;verticalAlign=middle;resizable=0;points=[];autosize=1;strokeColor=none;fillColor=none;" vertex="1" parent="1">
          <mxGeometry x="515" y="571" width="30" height="30" as="geometry" />
        </mxCell>
      </root>
    </mxGraphModel>
  </diagram>
</mxfile>
